HIERARCHY
ROOT Hips
{
	OFFSET -0.001795 -0.223333 0.028219
	CHANNELS 6 Xposition Yposition Zposition Zrotation Yrotation Xrotation 
	JOINT LeftUpLeg
	{
		OFFSET 0.069520 -0.091406 -0.006815
		CHANNELS 3 Zrotation Yrotation Xrotation
		JOINT LeftLeg
		{
			OFFSET 0.034277 -0.375199 -0.004496
			CHANNELS 3 Zrotation Yrotation Xrotation
			JOINT LeftFoot
			{
				OFFSET -0.013596 -0.397961 -0.043693
				CHANNELS 3 Zrotation Yrotation Xrotation
				JOINT LeftToe
				{
					OFFSET 0.026358 -0.055791 0.119288
					CHANNELS 3 Zrotation Yrotation Xrotation
					End Site
					{
						OFFSET 0.000000 0.000000 0.000000
					}
				}
			}
		}
	}
	JOINT RightUpLeg
	{
		OFFSET -0.067670 -0.090522 -0.004320
		CHANNELS 3 Zrotation Yrotation Xrotation
		JOINT RightLeg
		{
			OFFSET -0.038290 -0.382569 -0.008850
			CHANNELS 3 Zrotation Yrotation Xrotation
			JOINT RightFoot
			{
				OFFSET 0.015774 -0.398415 -0.042312
				CHANNELS 3 Zrotation Yrotation Xrotation
				JOINT RightToe
				{
					OFFSET -0.025372 -0.048144 0.123348
					CHANNELS 3 Zrotation Yrotation Xrotation
					End Site
					{
						OFFSET 0.000000 0.000000 0.000000
					}
				}
			}
		}
	}
	JOINT Spine
	{
		OFFSET -0.002533 0.108963 -0.026696
		CHANNELS 3 Zrotation Yrotation Xrotation
		JOINT Spine1
		{
			OFFSET 0.005487 0.135180 0.001092
			CHANNELS 3 Zrotation Yrotation Xrotation
			JOINT Spine2
			{
				OFFSET 0.001457 0.052922 0.025425
				CHANNELS 3 Zrotation Yrotation Xrotation
				JOINT Neck
				{
					OFFSET -0.002778 0.213870 -0.042857
					CHANNELS 3 Zrotation Yrotation Xrotation
					JOINT Head
					{
						OFFSET 0.005152 0.064970 0.051349
						CHANNELS 3 Zrotation Yrotation Xrotation
						End Site
						{
							OFFSET 0.000000 0.000000 0.000000
						}
					}
				}
				JOINT LeftShoulder
				{
					OFFSET 0.078845 0.121749 -0.034090
					CHANNELS 3 Zrotation Yrotation Xrotation
					JOINT LeftArm
					{
						OFFSET 0.090977 0.030469 -0.008868
						CHANNELS 3 Zrotation Yrotation Xrotation
						JOINT LeftForeArm
						{
							OFFSET 0.259612 -0.012772 -0.027456
							CHANNELS 3 Zrotation Yrotation Xrotation
							JOINT LeftHand
							{
								OFFSET 0.249234 0.008986 -0.001171
								CHANNELS 3 Zrotation Yrotation Xrotation
								End Site
								{
									OFFSET 0.000000 0.000000 0.000000
								}
							}
						}
					}
				}
				JOINT RightShoulder
				{
					OFFSET -0.081759 0.118833 -0.038615
					CHANNELS 3 Zrotation Yrotation Xrotation
					JOINT RightArm
					{
						OFFSET -0.096012 0.032551 -0.009143
						CHANNELS 3 Zrotation Yrotation Xrotation
						JOINT RightForeArm
						{
							OFFSET -0.253742 -0.013329 -0.021401
							CHANNELS 3 Zrotation Yrotation Xrotation
							JOINT RightHand
							{
								OFFSET -0.255298 0.007772 -0.005559
								CHANNELS 3 Zrotation Yrotation Xrotation
								End Site
								{
									OFFSET 0.000000 0.000000 0.000000
								}
							}
						}
					}
				}
			}
		}
	}
}
MOTION
Frames: 10
Frame Time: 0.050000
-0.017335 0.958300 0.894482 -1.359811 -3.144635 -1.405129 6.430697 0.025112 0.915775 -1.075430 -0.065472 9.259007 -2.739736 2.165269 18.807066 0.000000 0.000000 0.000000 -1.580597 0.144075 -1.211234 2.522467 -0.102610 7.115221 -1.283437 -7.719914 11.602517 0.000000 0.000000 0.000000 8.378680 -1.059435 9.245251 -5.693689 2.019394 -20.880455 -2.692527 5.911501 26.614331 11.820286 -4.011015 -29.658019 0.000000 0.000000 0.000000 -27.300957 -14.267033 5.828273 -30.905438 -13.653367 -1.752674 -63.674353 -77.009743 56.048532 0.000000 0.000000 0.000000 35.906694 -0.739756 -1.218142 41.871420 11.602957 -2.930803 48.015997 73.778055 42.804244 0.000000 0.000000 0.000000 
-0.021978 0.956821 0.899622 -1.369750 -2.374996 -1.355345 7.325822 -0.103304 -2.915854 -2.160369 0.071657 17.073759 -2.726929 1.707532 16.983373 0.000000 0.000000 0.000000 -1.702858 0.118289 -0.905637 3.088650 -0.198395 7.535073 -1.262648 -7.276753 10.595901 0.000000 0.000000 0.000000 8.700396 -1.192082 10.087450 -5.694764 2.041723 -20.784395 -2.622743 5.245557 26.541694 11.463065 -3.819113 -29.850716 0.000000 0.000000 0.000000 -27.792199 -14.153712 5.837008 -30.602830 -13.795512 -1.727221 -63.320570 -76.340150 55.212086 0.000000 0.000000 0.000000 35.618182 -0.453709 -1.090097 41.475220 11.695836 -2.840377 47.143097 73.472947 41.710122 0.000000 0.000000 0.000000 
-0.024926 0.955484 0.906263 -1.471130 -2.973783 -1.063662 8.318616 -0.144817 -7.313193 -3.678764 0.614659 25.476391 -2.455260 2.291211 17.670440 0.000000 0.000000 0.000000 -1.962939 0.159015 -1.308992 3.390644 -0.220333 8.690399 -0.341536 -5.168981 9.535662 0.000000 0.000000 0.000000 9.438493 -1.328171 10.670250 -5.795243 2.038390 -21.240562 -2.222019 5.935923 26.706067 10.717093 -3.278707 -30.297679 0.000000 0.000000 0.000000 -28.337454 -13.509044 5.319589 -30.636498 -12.940294 -1.891548 -69.602650 -76.015251 60.490667 0.000000 0.000000 0.000000 35.088843 -0.354363 -0.822626 40.503249 11.241865 -3.015523 49.596912 73.066633 43.407359 0.000000 0.000000 0.000000 
-0.026362 0.955142 0.915922 -0.987260 -3.122478 -0.600356 8.768179 -0.163447 -11.520922 -5.537142 1.481546 30.865489 -1.046015 5.332986 21.062797 0.000000 0.000000 0.000000 -2.777136 0.164523 -1.160300 3.820174 -0.281455 9.504734 -0.149362 -3.984066 7.476226 0.000000 0.000000 0.000000 9.722872 -1.368696 10.706812 -6.236246 2.162294 -20.909890 -1.753965 6.205829 26.213180 9.574679 -2.513124 -30.857482 0.000000 0.000000 0.000000 -29.815061 -13.069667 4.951622 -29.906786 -12.516861 -1.874984 -72.092112 -75.703949 62.413096 0.000000 0.000000 0.000000 34.832202 -0.362825 -0.764512 40.444281 11.573875 -2.885277 53.545622 72.058859 45.908890 0.000000 0.000000 0.000000 
-0.026433 0.955749 0.929288 -0.522384 -3.981103 -0.776624 8.656292 -0.162343 -13.785365 -6.336030 1.899333 30.428625 1.307042 9.706374 27.640337 0.000000 0.000000 0.000000 -3.041403 0.095217 -0.056002 3.133278 -0.136634 9.625715 0.094372 -3.129751 6.515772 0.000000 0.000000 0.000000 9.438370 -1.392459 11.333345 -5.680352 1.966998 -22.016165 -1.715460 7.935963 26.656115 9.959080 -2.519241 -30.979156 0.000000 0.000000 0.000000 -29.070428 -12.343224 4.009140 -30.953368 -11.512103 -2.056430 -78.587576 -74.354069 66.835326 0.000000 0.000000 0.000000 34.578567 -0.020734 0.080499 40.188344 12.322976 -2.857265 57.077878 71.497403 48.754631 0.000000 0.000000 0.000000 
-0.024996 0.955725 0.945793 -0.120483 -3.853332 -0.721748 8.296151 -0.231202 -15.727125 -5.960067 1.565113 26.740471 3.367842 10.967109 19.417296 0.000000 0.000000 0.000000 -3.542246 -0.003008 1.683563 3.077541 -0.146682 8.812680 -0.116727 -3.145243 5.559018 0.000000 0.000000 0.000000 9.715113 -1.394129 11.099286 -6.580237 2.211671 -21.962803 -1.387385 8.291014 26.957894 10.563563 -2.677274 -31.664494 0.000000 0.000000 0.000000 -28.620886 -12.197469 3.763826 -31.437364 -11.874754 -1.980364 -79.605512 -74.429736 67.765597 0.000000 0.000000 0.000000 34.484054 -0.112157 0.243943 40.757249 14.136298 -2.406681 56.229406 70.904601 47.880221 0.000000 0.000000 0.000000 
-0.021557 0.954678 0.965341 0.124066 -4.025730 -0.536925 7.891903 -0.291131 -16.306206 -5.205756 1.018119 18.126252 3.323776 10.335999 16.308897 0.000000 0.000000 0.000000 -3.994475 -0.059905 3.055396 2.754288 -0.094394 8.527237 -0.087474 -2.736760 4.796172 0.000000 0.000000 0.000000 9.569561 -1.326501 10.634034 -6.604012 2.224412 -21.634433 -1.413076 8.944649 26.754199 10.216904 -2.284986 -32.345539 0.000000 0.000000 0.000000 -28.378428 -11.629387 3.165033 -31.341619 -11.210656 -2.047151 -82.818674 -73.716519 69.852361 0.000000 0.000000 0.000000 34.265003 0.810413 1.188513 40.686156 15.700251 -1.978191 54.413527 69.784405 45.678144 0.000000 0.000000 0.000000 
-0.016113 0.951637 0.987938 -0.015313 -4.267447 -0.419551 7.790590 -0.303179 -16.880314 -3.341339 0.421579 10.584464 1.352777 7.581408 17.415706 0.000000 0.000000 0.000000 -4.089607 -0.141488 4.647315 2.637563 -0.083206 8.049819 -0.523773 -3.482759 4.275835 0.000000 0.000000 0.000000 9.302166 -1.284051 10.475221 -7.095966 2.326199 -22.241350 -0.446384 9.570681 27.255976 10.657669 -2.367922 -32.905845 0.000000 0.000000 0.000000 -27.728858 -11.220510 2.766640 -31.305958 -11.079591 -2.065278 -85.175103 -74.010928 72.192151 0.000000 0.000000 0.000000 34.043301 0.622485 1.315088 40.648870 17.983428 -1.390184 54.891341 68.162364 45.082520 0.000000 0.000000 0.000000 
-0.008524 0.947811 1.013772 -0.056924 -4.945935 -1.156358 7.624767 -0.285923 -16.652165 -2.170853 0.193020 7.976039 -0.670397 5.144545 19.909523 0.000000 0.000000 0.000000 -4.426635 -0.251316 7.387893 2.148211 -0.007407 7.587448 -0.708473 -3.578362 3.522371 0.000000 0.000000 0.000000 9.016571 -1.313861 11.261795 -7.798434 2.498587 -22.503329 0.222833 10.668378 27.600646 11.126525 -2.407825 -33.544999 0.000000 0.000000 0.000000 -26.610337 -12.059899 3.095991 -31.053339 -11.844066 -1.853434 -84.152244 -75.919058 72.834090 0.000000 0.000000 0.000000 33.614981 0.761609 1.763234 40.825995 20.210640 -0.797062 54.904290 67.853992 45.186515 0.000000 0.000000 0.000000 
0.001453 0.942887 1.042557 0.134161 -4.894372 -1.753012 6.596813 -0.444802 -17.057482 -1.621945 0.065969 10.471002 -1.392290 4.281100 20.448529 0.000000 0.000000 0.000000 -4.812842 -0.322539 9.698380 1.223891 0.171378 8.346547 -1.189824 -4.166208 2.419526 0.000000 0.000000 0.000000 7.835924 -1.187461 11.277371 -7.770506 2.499447 -22.466769 0.999334 11.241597 28.113274 12.294407 -2.937451 -33.538142 0.000000 0.000000 0.000000 -25.514206 -12.115592 2.979786 -29.663729 -13.551866 -1.431024 -79.474119 -77.280596 69.390286 0.000000 0.000000 0.000000 34.125922 1.010383 2.246632 38.891820 22.570963 -0.314542 53.528750 67.697729 43.948773 0.000000 0.000000 0.000000 
